# xmcd
#
# Track frame offsets: 
#        150
#        27674
#        54336
#        81036
#        113438
#        139898
#        165698
#        191445
#        218032
#        231562
#        255861
#        274386
#        303936
#        320811
#
# Disc length: 4644 seconds
#
# Revision: 1
# Processed by: cddbd v1.5.2PL0 Copyright (c) Steve Scherf et al.
# Submitted via: ExactAudioCopy v1.0b6
#
DISCID=c312220e
DTITLE=Various Artist - Rare80 Present - Rewind, Topo and Roby, Rudy and 
DTITLE=Co. [RA000554]
DYEAR=2014
DGENRE=Electronic
TTITLE0=Rewind - Rosalie (Pop and Go!) (Extended Version)
TTITLE1=Rewind - Oriental Eyes (Special D.J. Mix)
TTITLE2=Topo and Roby - Set On Fire (Extended Version)
TTITLE3=Topo and Roby - Under The Ice (Extended Version)
TTITLE4=Rudy and Co - Mama Radio (Vocal Edit)
TTITLE5=Rudy and Co - Play The Game (Lolly Dance) (Extended Version)
TTITLE6=Rewind - Rosalie (Pop and Go!) (Dub Version)
TTITLE7=Rewind - Oriental Eyes (Dub Mix)
TTITLE8=Topo and Roby - Set On Fire (Vocal Edit)
TTITLE9=Topo and Roby - Under The Ice (Instrumental Version)
TTITLE10=Rudy and Co - Mama Radio (Radio Version)
TTITLE11=Rudy and Co - Play The Game (Lolly Dance) (Instrumental Version
TTITLE11=)
TTITLE12=Topo and Roby - Set On Fire (Instrumental Version)
TTITLE13=Jimmy and Susy - Come Back (Instrumental Version)
EXTD=
EXTT0=
EXTT1=
EXTT2=
EXTT3=
EXTT4=
EXTT5=
EXTT6=
EXTT7=
EXTT8=
EXTT9=
EXTT10=
EXTT11=
EXTT12=
EXTT13=
PLAYORDER=
